<svg width="22" height="18" viewBox="0 0 22 18" fill="none" xmlns="http://www.w3.org/2000/svg">
<path d="M12.1895 1.19846C12.4708 0.917251 12.8523 0.759277 13.25 0.759277C13.6477 0.759277 14.0292 0.917251 14.3105 1.19846L21.0605 7.94847C21.3417 8.22976 21.4997 8.61122 21.4997 9.00897C21.4997 9.40672 21.3417 9.78818 21.0605 10.0695L14.3105 16.8195C14.0276 17.0927 13.6487 17.2439 13.2554 17.2405C12.8621 17.2371 12.4859 17.0793 12.2078 16.8012C11.9297 16.5231 11.7719 16.1469 11.7685 15.7536C11.7651 15.3603 11.9163 14.9814 12.1895 14.6985L16.25 10.509H2C1.60218 10.509 1.22064 10.3509 0.93934 10.0696C0.658035 9.78833 0.5 9.4068 0.5 9.00897C0.5 8.61114 0.658035 8.22961 0.93934 7.94831C1.22064 7.667 1.60218 7.50897 2 7.50897H16.25L12.1895 3.31946C11.9083 3.03817 11.7503 2.65671 11.7503 2.25896C11.7503 1.86121 11.9083 1.47975 12.1895 1.19846Z" fill="#E2E2E2"/>
</svg>
