<svg width="70" height="70" viewBox="0 0 70 70" fill="none" xmlns="http://www.w3.org/2000/svg">
<path d="M64.1663 26.2501H5.83301V20.4167C5.83301 18.0961 6.75488 15.8705 8.39582 14.2296C10.0368 12.5886 12.2624 11.6667 14.583 11.6667H55.4163C57.737 11.6667 59.9626 12.5886 61.6035 14.2296C63.2445 15.8705 64.1663 18.0961 64.1663 20.4167V26.2501ZM64.1663 32.0834V49.5834C64.1663 51.9041 63.2445 54.1297 61.6035 55.7706C59.9626 57.4115 57.737 58.3334 55.4163 58.3334H14.583C12.2624 58.3334 10.0368 57.4115 8.39582 55.7706C6.75488 54.1297 5.83301 51.9041 5.83301 49.5834L5.83301 32.0834H23.7005C24.3493 34.5866 25.8109 36.8035 27.856 38.3861C29.9011 39.9687 32.4138 40.8274 34.9997 40.8274C37.5856 40.8274 40.0983 39.9687 42.1434 38.3861C44.1884 36.8035 45.6501 34.5866 46.2988 32.0834H64.1663Z" fill="#F9F4FF" fill-opacity="0.38"/>
</svg>
