<svg width="218" height="107" viewBox="0 0 218 107" fill="none" xmlns="http://www.w3.org/2000/svg">
<g clip-path="url(#clip0_52_3058)">
<path d="M106.083 26.25V43.75C106.084 44.4934 106.369 45.2084 106.879 45.749C107.389 46.2896 108.087 46.6148 108.829 46.6584C109.571 46.702 110.302 46.4605 110.872 45.9834C111.442 45.5063 111.808 44.8294 111.896 44.0912L111.917 43.75V26.25H129.417C130.888 26.2495 132.306 26.8053 133.385 27.806C134.464 28.8067 135.125 30.1783 135.235 31.6458L135.25 32.0833V58.3333C135.25 59.805 134.695 61.2225 133.694 62.3016C132.693 63.3807 131.322 64.0417 129.854 64.1521L129.417 64.1667H88.5833C87.1117 64.1671 85.6942 63.6113 84.6151 62.6106C83.536 61.6099 82.875 60.2384 82.7646 58.7708L82.75 58.3333V32.0833C82.7495 30.6116 83.3054 29.1942 84.306 28.1151C85.3067 27.0359 86.6783 26.375 88.1458 26.2646L88.5833 26.25H106.083ZM111.578 7.20124L121.375 16.9954C121.923 17.5427 122.23 18.285 122.23 19.059C122.23 19.8329 121.923 20.5752 121.375 21.1225C120.828 21.6698 120.086 21.9772 119.312 21.9772C118.538 21.9772 117.796 21.6698 117.248 21.1225L111.917 15.7879V26.25H106.083V15.7879L100.752 21.1225C100.481 21.3935 100.159 21.6084 99.8049 21.7551C99.4508 21.9018 99.0714 21.9772 98.6881 21.9772C98.3049 21.9772 97.9254 21.9018 97.5713 21.7551C97.2173 21.6084 96.8956 21.3935 96.6246 21.1225C96.3536 20.8515 96.1386 20.5298 95.992 20.1757C95.8453 19.8217 95.7698 19.4422 95.7698 19.059C95.7698 18.6757 95.8453 18.2962 95.992 17.9422C96.1386 17.5881 96.3536 17.2664 96.6246 16.9954L106.425 7.20124C107.108 6.5182 108.035 6.13452 109.001 6.13452C109.968 6.13452 110.895 6.5182 111.578 7.20124Z" fill="#E2E2E2" fill-opacity="0.38"/>
</g>
<path d="M2.736 101V84.2H9.576C11.368 84.2 12.936 84.56 14.28 85.28C15.64 85.984 16.696 86.968 17.448 88.232C18.2 89.496 18.576 90.952 18.576 92.6C18.576 94.248 18.2 95.704 17.448 96.968C16.696 98.232 15.64 99.224 14.28 99.944C12.936 100.648 11.368 101 9.576 101H2.736ZM4.512 99.464H9.48C10.968 99.464 12.256 99.176 13.344 98.6C14.448 98.008 15.304 97.2 15.912 96.176C16.52 95.136 16.824 93.944 16.824 92.6C16.824 91.24 16.52 90.048 15.912 89.024C15.304 88 14.448 87.2 13.344 86.624C12.256 86.032 10.968 85.736 9.48 85.736H4.512V99.464ZM22.2041 101V88.4H23.8361V91.832L23.6681 91.232C24.0201 90.272 24.6121 89.544 25.4441 89.048C26.2761 88.536 27.3081 88.28 28.5401 88.28V89.936C28.4761 89.936 28.4121 89.936 28.3481 89.936C28.2841 89.92 28.2201 89.912 28.1561 89.912C26.8281 89.912 25.7881 90.32 25.0361 91.136C24.2841 91.936 23.9081 93.08 23.9081 94.568V101H22.2041ZM38.6079 101V98.216L38.5359 97.76V93.104C38.5359 92.032 38.2319 91.208 37.6239 90.632C37.0319 90.056 36.1439 89.768 34.9599 89.768C34.1439 89.768 33.3679 89.904 32.6319 90.176C31.8959 90.448 31.2719 90.808 30.7599 91.256L29.9919 89.984C30.6319 89.44 31.3999 89.024 32.2959 88.736C33.1919 88.432 34.1359 88.28 35.1279 88.28C36.7599 88.28 38.0159 88.688 38.8959 89.504C39.7919 90.304 40.2399 91.528 40.2399 93.176V101H38.6079ZM34.2639 101.12C33.3199 101.12 32.4959 100.968 31.7919 100.664C31.1039 100.344 30.5759 99.912 30.2079 99.368C29.8399 98.808 29.6559 98.168 29.6559 97.448C29.6559 96.792 29.8079 96.2 30.1119 95.672C30.4319 95.128 30.9439 94.696 31.6479 94.376C32.3679 94.04 33.3279 93.872 34.5279 93.872H38.8719V95.144H34.5759C33.3599 95.144 32.5119 95.36 32.0319 95.792C31.5679 96.224 31.3359 96.76 31.3359 97.4C31.3359 98.12 31.6159 98.696 32.1759 99.128C32.7359 99.56 33.5199 99.776 34.5279 99.776C35.4879 99.776 36.3119 99.56 36.9999 99.128C37.7039 98.68 38.2159 98.04 38.5359 97.208L38.9199 98.384C38.5999 99.216 38.0399 99.88 37.2399 100.376C36.4559 100.872 35.4639 101.12 34.2639 101.12ZM50.2442 105.776C49.0922 105.776 47.9882 105.608 46.9322 105.272C45.8762 104.936 45.0202 104.456 44.3642 103.832L45.2282 102.536C45.8202 103.064 46.5482 103.48 47.4122 103.784C48.2922 104.104 49.2202 104.264 50.1962 104.264C51.7962 104.264 52.9722 103.888 53.7242 103.136C54.4762 102.4 54.8522 101.248 54.8522 99.68V96.536L55.0922 94.376L54.9242 92.216V88.4H56.5562V99.464C56.5562 101.64 56.0202 103.232 54.9482 104.24C53.8922 105.264 52.3242 105.776 50.2442 105.776ZM49.9322 100.52C48.7322 100.52 47.6522 100.264 46.6922 99.752C45.7322 99.224 44.9722 98.496 44.4122 97.568C43.8682 96.64 43.5962 95.576 43.5962 94.376C43.5962 93.176 43.8682 92.12 44.4122 91.208C44.9722 90.28 45.7322 89.56 46.6922 89.048C47.6522 88.536 48.7322 88.28 49.9322 88.28C51.0522 88.28 52.0602 88.512 52.9562 88.976C53.8522 89.44 54.5642 90.128 55.0922 91.04C55.6202 91.952 55.8842 93.064 55.8842 94.376C55.8842 95.688 55.6202 96.8 55.0922 97.712C54.5642 98.624 53.8522 99.32 52.9562 99.8C52.0602 100.28 51.0522 100.52 49.9322 100.52ZM50.1002 99.008C51.0282 99.008 51.8522 98.816 52.5722 98.432C53.2922 98.032 53.8602 97.488 54.2762 96.8C54.6922 96.096 54.9002 95.288 54.9002 94.376C54.9002 93.464 54.6922 92.664 54.2762 91.976C53.8602 91.288 53.2922 90.752 52.5722 90.368C51.8522 89.968 51.0282 89.768 50.1002 89.768C49.1882 89.768 48.3642 89.968 47.6282 90.368C46.9082 90.752 46.3402 91.288 45.9242 91.976C45.5242 92.664 45.3242 93.464 45.3242 94.376C45.3242 95.288 45.5242 96.096 45.9242 96.8C46.3402 97.488 46.9082 98.032 47.6282 98.432C48.3642 98.816 49.1882 99.008 50.1002 99.008ZM72.0191 101.144C70.9311 101.144 69.9631 100.968 69.1151 100.616C68.2671 100.248 67.5951 99.744 67.0991 99.104C66.6191 98.464 66.3791 97.72 66.3791 96.872C66.3791 96.152 66.5391 95.496 66.8591 94.904C67.1791 94.296 67.6911 93.704 68.3951 93.128C69.1151 92.536 70.0671 91.92 71.2511 91.28C72.2591 90.72 73.0431 90.24 73.6031 89.84C74.1791 89.424 74.5871 89.032 74.8271 88.664C75.0671 88.28 75.1871 87.872 75.1871 87.44C75.1871 86.816 74.9711 86.312 74.5391 85.928C74.1231 85.544 73.5231 85.352 72.7391 85.352C71.8911 85.352 71.2351 85.568 70.7711 86C70.3071 86.416 70.0751 86.96 70.0751 87.632C70.0751 87.968 70.1231 88.288 70.2191 88.592C70.3311 88.896 70.5311 89.232 70.8191 89.6C71.1231 89.968 71.5391 90.432 72.0671 90.992L80.9471 100.136L79.9631 101.264L70.6991 91.736C70.1391 91.144 69.6911 90.632 69.3551 90.2C69.0351 89.752 68.8111 89.328 68.6831 88.928C68.5551 88.528 68.4911 88.104 68.4911 87.656C68.4911 86.936 68.6591 86.312 68.9951 85.784C69.3471 85.24 69.8431 84.824 70.4831 84.536C71.1231 84.232 71.8751 84.08 72.7391 84.08C73.5231 84.08 74.2031 84.216 74.7791 84.488C75.3711 84.744 75.8271 85.12 76.1471 85.616C76.4831 86.112 76.6511 86.712 76.6511 87.416C76.6511 88.024 76.4991 88.592 76.1951 89.12C75.9071 89.648 75.4271 90.168 74.7551 90.68C74.0831 91.176 73.1711 91.736 72.0191 92.36C71.0111 92.92 70.2111 93.432 69.6191 93.896C69.0431 94.36 68.6351 94.816 68.3951 95.264C68.1551 95.696 68.0351 96.176 68.0351 96.704C68.0351 97.312 68.2031 97.848 68.5391 98.312C68.8911 98.76 69.3711 99.112 69.9791 99.368C70.6031 99.608 71.3151 99.728 72.1151 99.728C73.2351 99.728 74.2351 99.496 75.1151 99.032C75.9951 98.568 76.7311 97.864 77.3231 96.92C77.9311 95.976 78.3711 94.792 78.6431 93.368L80.0111 93.8C79.7071 95.4 79.1871 96.744 78.4511 97.832C77.7151 98.92 76.8031 99.744 75.7151 100.304C74.6271 100.864 73.3951 101.144 72.0191 101.144ZM90.2751 101V84.2H97.1151C98.9071 84.2 100.475 84.56 101.819 85.28C103.179 85.984 104.235 86.968 104.987 88.232C105.739 89.496 106.115 90.952 106.115 92.6C106.115 94.248 105.739 95.704 104.987 96.968C104.235 98.232 103.179 99.224 101.819 99.944C100.475 100.648 98.9071 101 97.1151 101H90.2751ZM92.0511 99.464H97.0191C98.5071 99.464 99.7951 99.176 100.883 98.6C101.987 98.008 102.843 97.2 103.451 96.176C104.059 95.136 104.363 93.944 104.363 92.6C104.363 91.24 104.059 90.048 103.451 89.024C102.843 88 101.987 87.2 100.883 86.624C99.7951 86.032 98.5071 85.736 97.0191 85.736H92.0511V99.464ZM109.743 101V88.4H111.375V91.832L111.207 91.232C111.559 90.272 112.151 89.544 112.983 89.048C113.815 88.536 114.847 88.28 116.079 88.28V89.936C116.015 89.936 115.951 89.936 115.887 89.936C115.823 89.92 115.759 89.912 115.695 89.912C114.367 89.912 113.327 90.32 112.575 91.136C111.823 91.936 111.447 93.08 111.447 94.568V101H109.743ZM124.207 101.12C122.991 101.12 121.895 100.848 120.919 100.304C119.959 99.744 119.199 98.984 118.639 98.024C118.079 97.048 117.799 95.936 117.799 94.688C117.799 93.424 118.079 92.312 118.639 91.352C119.199 90.392 119.959 89.64 120.919 89.096C121.879 88.552 122.975 88.28 124.207 88.28C125.455 88.28 126.559 88.552 127.519 89.096C128.495 89.64 129.255 90.392 129.799 91.352C130.359 92.312 130.639 93.424 130.639 94.688C130.639 95.936 130.359 97.048 129.799 98.024C129.255 98.984 128.495 99.744 127.519 100.304C126.543 100.848 125.439 101.12 124.207 101.12ZM124.207 99.608C125.119 99.608 125.927 99.408 126.631 99.008C127.335 98.592 127.887 98.016 128.287 97.28C128.703 96.528 128.911 95.664 128.911 94.688C128.911 93.696 128.703 92.832 128.287 92.096C127.887 91.36 127.335 90.792 126.631 90.392C125.927 89.976 125.127 89.768 124.231 89.768C123.335 89.768 122.535 89.976 121.831 90.392C121.127 90.792 120.567 91.36 120.151 92.096C119.735 92.832 119.527 93.696 119.527 94.688C119.527 95.664 119.735 96.528 120.151 97.28C120.567 98.016 121.127 98.592 121.831 99.008C122.535 99.408 123.327 99.608 124.207 99.608ZM140.622 101.12C139.534 101.12 138.55 100.872 137.67 100.376C136.79 99.864 136.086 99.136 135.558 98.192C135.046 97.232 134.79 96.064 134.79 94.688C134.79 93.312 135.046 92.152 135.558 91.208C136.07 90.248 136.766 89.52 137.646 89.024C138.526 88.528 139.518 88.28 140.622 88.28C141.822 88.28 142.894 88.552 143.838 89.096C144.798 89.624 145.55 90.376 146.094 91.352C146.638 92.312 146.91 93.424 146.91 94.688C146.91 95.968 146.638 97.088 146.094 98.048C145.55 99.008 144.798 99.76 143.838 100.304C142.894 100.848 141.822 101.12 140.622 101.12ZM134.118 105.656V88.4H135.75V92.192L135.582 94.712L135.822 97.256V105.656H134.118ZM140.502 99.608C141.398 99.608 142.198 99.408 142.902 99.008C143.606 98.592 144.166 98.016 144.582 97.28C144.998 96.528 145.206 95.664 145.206 94.688C145.206 93.712 144.998 92.856 144.582 92.12C144.166 91.384 143.606 90.808 142.902 90.392C142.198 89.976 141.398 89.768 140.502 89.768C139.606 89.768 138.798 89.976 138.078 90.392C137.374 90.808 136.814 91.384 136.398 92.12C135.998 92.856 135.798 93.712 135.798 94.688C135.798 95.664 135.998 96.528 136.398 97.28C136.814 98.016 137.374 98.592 138.078 99.008C138.798 99.408 139.606 99.608 140.502 99.608ZM164.561 101V98.216L164.489 97.76V93.104C164.489 92.032 164.185 91.208 163.577 90.632C162.985 90.056 162.097 89.768 160.913 89.768C160.097 89.768 159.321 89.904 158.585 90.176C157.849 90.448 157.225 90.808 156.713 91.256L155.945 89.984C156.585 89.44 157.353 89.024 158.249 88.736C159.145 88.432 160.089 88.28 161.081 88.28C162.713 88.28 163.969 88.688 164.849 89.504C165.745 90.304 166.193 91.528 166.193 93.176V101H164.561ZM160.217 101.12C159.273 101.12 158.449 100.968 157.745 100.664C157.057 100.344 156.529 99.912 156.161 99.368C155.793 98.808 155.609 98.168 155.609 97.448C155.609 96.792 155.761 96.2 156.065 95.672C156.385 95.128 156.897 94.696 157.601 94.376C158.321 94.04 159.281 93.872 160.481 93.872H164.825V95.144H160.529C159.313 95.144 158.465 95.36 157.985 95.792C157.521 96.224 157.289 96.76 157.289 97.4C157.289 98.12 157.569 98.696 158.129 99.128C158.689 99.56 159.473 99.776 160.481 99.776C161.441 99.776 162.265 99.56 162.953 99.128C163.657 98.68 164.169 98.04 164.489 97.208L164.873 98.384C164.553 99.216 163.993 99.88 163.193 100.376C162.409 100.872 161.417 101.12 160.217 101.12ZM179.047 92.336H187.927V93.872H179.047V92.336ZM179.239 101H177.463V84.2H188.983V85.736H179.239V101ZM192.29 101V88.4H193.994V101H192.29ZM193.154 85.616C192.802 85.616 192.506 85.496 192.266 85.256C192.026 85.016 191.906 84.728 191.906 84.392C191.906 84.056 192.026 83.776 192.266 83.552C192.506 83.312 192.802 83.192 193.154 83.192C193.506 83.192 193.802 83.304 194.042 83.528C194.282 83.752 194.402 84.032 194.402 84.368C194.402 84.72 194.282 85.016 194.042 85.256C193.818 85.496 193.522 85.616 193.154 85.616ZM198.735 101V83.192H200.439V101H198.735ZM210.533 101.12C209.221 101.12 208.069 100.848 207.077 100.304C206.085 99.744 205.309 98.984 204.749 98.024C204.189 97.048 203.909 95.936 203.909 94.688C203.909 93.44 204.173 92.336 204.701 91.376C205.245 90.416 205.981 89.664 206.909 89.12C207.853 88.56 208.909 88.28 210.077 88.28C211.261 88.28 212.309 88.552 213.221 89.096C214.149 89.624 214.877 90.376 215.405 91.352C215.933 92.312 216.197 93.424 216.197 94.688C216.197 94.768 216.189 94.856 216.173 94.952C216.173 95.032 216.173 95.12 216.173 95.216H205.205V93.944H215.261L214.589 94.448C214.589 93.536 214.389 92.728 213.989 92.024C213.605 91.304 213.077 90.744 212.405 90.344C211.733 89.944 210.957 89.744 210.077 89.744C209.213 89.744 208.437 89.944 207.749 90.344C207.061 90.744 206.525 91.304 206.141 92.024C205.757 92.744 205.565 93.568 205.565 94.496V94.76C205.565 95.72 205.773 96.568 206.189 97.304C206.621 98.024 207.213 98.592 207.965 99.008C208.733 99.408 209.605 99.608 210.581 99.608C211.349 99.608 212.061 99.472 212.717 99.2C213.389 98.928 213.965 98.512 214.445 97.952L215.405 99.056C214.845 99.728 214.141 100.24 213.293 100.592C212.461 100.944 211.541 101.12 210.533 101.12Z" fill="#F9F4FF" fill-opacity="0.38"/>
<defs>
<clipPath id="clip0_52_3058">
<rect width="70" height="70" fill="white" transform="translate(74)"/>
</clipPath>
</defs>
</svg>
