<svg width="16" height="16" viewBox="0 0 16 16" fill="none" xmlns="http://www.w3.org/2000/svg">
<path d="M7.76905 14.4531C5.93203 14.401 4.41394 13.763 3.21478 12.5391C2.01562 11.3151 1.39052 9.77865 1.33949 7.92969C1.39052 6.05469 2.01562 4.50521 3.21478 3.28125C4.41394 2.05729 5.93203 1.41927 7.76905 1.36719C9.58055 1.41927 11.0859 2.05729 12.285 3.28125C13.4842 4.50521 14.1093 6.05469 14.1603 7.92969C14.1093 9.77865 13.4842 11.3151 12.285 12.5391C11.0859 13.763 9.58055 14.401 7.76905 14.4531ZM7.76905 15.8203C9.96326 15.7682 11.7875 15 13.2418 13.5156C14.6961 12.0312 15.4488 10.1693 15.4998 7.92969C15.4488 5.6901 14.6961 3.82812 13.2418 2.34375C11.7875 0.833333 9.96326 0.052083 7.76905 0C5.57483 0.052083 3.75058 0.833333 2.29627 2.34375C0.816452 3.82812 0.0510282 5.6901 0 7.92969C0.0510282 10.1693 0.816452 12.0312 2.29627 13.5156C3.75058 15 5.57483 15.7682 7.76905 15.8203ZM9.60607 4.57031C9.55504 3.9974 9.24887 3.6849 8.68756 3.63281C8.12625 3.6849 7.82008 3.9974 7.76905 4.57031C7.82008 5.16927 8.12625 5.49479 8.68756 5.54688C9.24887 5.49479 9.55504 5.16927 9.60607 4.57031ZM9.37644 11.7969C9.40195 11.7969 9.42747 11.7969 9.45298 11.7969C9.45298 11.7708 9.46574 11.7578 9.49125 11.7578L9.60607 11.25C9.37644 11.3802 9.10854 11.4323 8.80237 11.4062C8.4962 11.4062 8.33036 11.2109 8.30485 10.8203C8.33036 10.5599 8.38139 10.2865 8.45793 10C8.50896 9.81771 8.54723 9.64844 8.57274 9.49219C8.62377 9.33594 8.66204 9.20573 8.68756 9.10156C8.81513 8.65885 8.89167 8.3724 8.91718 8.24219C8.9427 8.11198 8.96821 7.99479 8.99373 7.89062C8.99373 7.86458 8.99373 7.85156 8.99373 7.85156C8.99373 7.72135 9.00648 7.63021 9.032 7.57812C9.032 7.52604 9.032 7.48698 9.032 7.46094C8.95546 6.67969 8.4962 6.28906 7.65424 6.28906C7.09293 6.34115 6.54437 6.4974 6.00857 6.75781L5.89376 7.26562C6.07236 7.1875 6.27647 7.1224 6.5061 7.07031C6.73573 7.04427 6.92708 7.09635 7.08017 7.22656C7.18222 7.35677 7.2205 7.53906 7.19498 7.77344C7.14395 8.03385 7.09293 8.25521 7.0419 8.4375C7.0419 8.4375 7.0419 8.45052 7.0419 8.47656L6.58264 10.1562C6.5061 10.4688 6.46783 10.7812 6.46783 11.0938C6.49334 11.4062 6.62091 11.6667 6.85054 11.875C7.08017 12.0833 7.42461 12.1875 7.88386 12.1875C8.11349 12.1875 8.33036 12.1615 8.53447 12.1094C8.73859 12.0573 9.01924 11.9531 9.37644 11.7969Z" fill="#E2E2E2"/>
</svg>
