<svg width="185" height="236" viewBox="0 0 185 236" fill="none" xmlns="http://www.w3.org/2000/svg">
<g clip-path="url(#clip0_89_4247)">
<rect width="184.8" height="236" fill="#121212"/>
<mask id="mask0_89_4247" style="mask-type:alpha" maskUnits="userSpaceOnUse" x="26" y="48" width="133" height="134">
<rect x="92.6237" y="43.2" width="101.574" height="101.574" rx="13.851" transform="rotate(45 92.6237 43.2)" fill="#D9D9D9"/>
</mask>
<g mask="url(#mask0_89_4247)">
<ellipse cx="92.0466" cy="125.729" rx="77.9119" ry="77.9119" fill="#F2E7FE"/>
<ellipse cx="92.0465" cy="148.814" rx="51.9413" ry="51.9413" fill="#D7B7FD"/>
<ellipse cx="92.0465" cy="154.585" rx="34.6275" ry="34.6275" fill="#BB86FC"/>
<ellipse cx="92.0465" cy="161.511" rx="23.085" ry="23.085" fill="#70EFDE"/>
</g>
<path d="M30.24 204.6C31.9467 204.6 33.4533 204.933 34.76 205.6C36.0933 206.267 37.1333 207.293 37.88 208.68C38.6267 210.04 39 211.8 39 213.96V226.2H34V214.6C34 212.707 33.5867 211.293 32.76 210.36C31.9333 209.427 30.7467 208.96 29.2 208.96C28.1067 208.96 27.1333 209.2 26.28 209.68C25.4533 210.16 24.8 210.867 24.32 211.8C23.8667 212.733 23.64 213.92 23.64 215.36V226.2H18.64V214.6C18.64 212.707 18.2267 211.293 17.4 210.36C16.5733 209.427 15.3867 208.96 13.84 208.96C12.7467 208.96 11.7733 209.2 10.92 209.68C10.0933 210.16 9.44 210.867 8.96 211.8C8.50667 212.733 8.28 213.92 8.28 215.36V226.2H3.28V204.84H8.04V210.52L7.2 208.84C7.92 207.453 8.96 206.4 10.32 205.68C11.7067 204.96 13.28 204.6 15.04 204.6C17.04 204.6 18.7733 205.093 20.24 206.08C21.7333 207.067 22.72 208.56 23.2 210.56L21.24 209.88C21.9333 208.28 23.08 207 24.68 206.04C26.28 205.08 28.1333 204.6 30.24 204.6ZM52.2684 226.48C49.8951 226.48 47.8151 226.013 46.0284 225.08C44.2684 224.12 42.8951 222.813 41.9084 221.16C40.9484 219.507 40.4684 217.627 40.4684 215.52C40.4684 213.387 40.9351 211.507 41.8684 209.88C42.8284 208.227 44.1351 206.933 45.7884 206C47.4684 205.067 49.3751 204.6 51.5084 204.6C53.5884 204.6 55.4418 205.053 57.0684 205.96C58.6951 206.867 59.9751 208.147 60.9084 209.8C61.8418 211.453 62.3084 213.4 62.3084 215.64C62.3084 215.853 62.2951 216.093 62.2684 216.36C62.2684 216.627 62.2551 216.88 62.2284 217.12H44.4284V213.8H59.5884L57.6284 214.84C57.6551 213.613 57.4018 212.533 56.8684 211.6C56.3351 210.667 55.6018 209.933 54.6684 209.4C53.7618 208.867 52.7084 208.6 51.5084 208.6C50.2818 208.6 49.2018 208.867 48.2684 209.4C47.3618 209.933 46.6418 210.68 46.1084 211.64C45.6018 212.573 45.3484 213.68 45.3484 214.96V215.76C45.3484 217.04 45.6418 218.173 46.2284 219.16C46.8151 220.147 47.6418 220.907 48.7084 221.44C49.7751 221.973 51.0018 222.24 52.3884 222.24C53.5884 222.24 54.6684 222.053 55.6284 221.68C56.5884 221.307 57.4418 220.72 58.1884 219.92L60.8684 223C59.9084 224.12 58.6951 224.987 57.2284 225.6C55.7884 226.187 54.1351 226.48 52.2684 226.48ZM90.8713 204.6C92.5779 204.6 94.0846 204.933 95.3912 205.6C96.7246 206.267 97.7646 207.293 98.5112 208.68C99.2579 210.04 99.6312 211.8 99.6312 213.96V226.2H94.6312V214.6C94.6312 212.707 94.2179 211.293 93.3913 210.36C92.5646 209.427 91.3779 208.96 89.8312 208.96C88.7379 208.96 87.7646 209.2 86.9112 209.68C86.0846 210.16 85.4313 210.867 84.9513 211.8C84.4979 212.733 84.2712 213.92 84.2712 215.36V226.2H79.2712V214.6C79.2712 212.707 78.8579 211.293 78.0312 210.36C77.2046 209.427 76.0179 208.96 74.4712 208.96C73.3779 208.96 72.4046 209.2 71.5512 209.68C70.7246 210.16 70.0712 210.867 69.5912 211.8C69.1379 212.733 68.9112 213.92 68.9112 215.36V226.2H63.9112V204.84H68.6712V210.52L67.8312 208.84C68.5512 207.453 69.5912 206.4 70.9512 205.68C72.3379 204.96 73.9112 204.6 75.6712 204.6C77.6712 204.6 79.4046 205.093 80.8713 206.08C82.3646 207.067 83.3513 208.56 83.8313 210.56L81.8712 209.88C82.5646 208.28 83.7113 207 85.3113 206.04C86.9113 205.08 88.7646 204.6 90.8713 204.6ZM112.9 226.48C110.526 226.48 108.446 226.013 106.66 225.08C104.9 224.12 103.526 222.813 102.54 221.16C101.58 219.507 101.1 217.627 101.1 215.52C101.1 213.387 101.566 211.507 102.5 209.88C103.46 208.227 104.766 206.933 106.42 206C108.1 205.067 110.006 204.6 112.14 204.6C114.22 204.6 116.073 205.053 117.7 205.96C119.326 206.867 120.606 208.147 121.54 209.8C122.473 211.453 122.94 213.4 122.94 215.64C122.94 215.853 122.926 216.093 122.9 216.36C122.9 216.627 122.886 216.88 122.86 217.12H105.06V213.8H120.22L118.26 214.84C118.286 213.613 118.033 212.533 117.5 211.6C116.966 210.667 116.233 209.933 115.3 209.4C114.393 208.867 113.34 208.6 112.14 208.6C110.913 208.6 109.833 208.867 108.9 209.4C107.993 209.933 107.273 210.68 106.74 211.64C106.233 212.573 105.98 213.68 105.98 214.96V215.76C105.98 217.04 106.273 218.173 106.86 219.16C107.446 220.147 108.273 220.907 109.34 221.44C110.406 221.973 111.633 222.24 113.02 222.24C114.22 222.24 115.3 222.053 116.26 221.68C117.22 221.307 118.073 220.72 118.82 219.92L121.5 223C120.54 224.12 119.326 224.987 117.86 225.6C116.42 226.187 114.766 226.48 112.9 226.48ZM136.662 204.6C138.369 204.6 139.889 204.933 141.222 205.6C142.582 206.267 143.649 207.293 144.422 208.68C145.196 210.04 145.582 211.8 145.582 213.96V226.2H140.582V214.6C140.582 212.707 140.129 211.293 139.222 210.36C138.342 209.427 137.102 208.96 135.502 208.96C134.329 208.96 133.289 209.2 132.382 209.68C131.476 210.16 130.769 210.88 130.262 211.84C129.782 212.773 129.542 213.96 129.542 215.4V226.2H124.542V204.84H129.302V210.6L128.462 208.84C129.209 207.48 130.289 206.44 131.702 205.72C133.142 204.973 134.796 204.6 136.662 204.6ZM156.765 226.48C154.419 226.48 152.605 225.88 151.325 224.68C150.045 223.453 149.405 221.653 149.405 219.28V200.12H154.405V219.16C154.405 220.173 154.659 220.96 155.165 221.52C155.699 222.08 156.432 222.36 157.365 222.36C158.485 222.36 159.419 222.067 160.165 221.48L161.565 225.04C160.979 225.52 160.259 225.88 159.405 226.12C158.552 226.36 157.672 226.48 156.765 226.48ZM145.885 209V205H160.125V209H145.885ZM171.375 226.48C169.189 226.48 167.242 226.013 165.535 225.08C163.829 224.12 162.482 222.813 161.495 221.16C160.509 219.507 160.015 217.627 160.015 215.52C160.015 213.387 160.509 211.507 161.495 209.88C162.482 208.227 163.829 206.933 165.535 206C167.242 205.067 169.189 204.6 171.375 204.6C173.589 204.6 175.549 205.067 177.255 206C178.989 206.933 180.335 208.213 181.295 209.84C182.282 211.467 182.775 213.36 182.775 215.52C182.775 217.627 182.282 219.507 181.295 221.16C180.335 222.813 178.989 224.12 177.255 225.08C175.549 226.013 173.589 226.48 171.375 226.48ZM171.375 222.2C172.602 222.2 173.695 221.933 174.655 221.4C175.615 220.867 176.362 220.093 176.895 219.08C177.455 218.067 177.735 216.88 177.735 215.52C177.735 214.133 177.455 212.947 176.895 211.96C176.362 210.947 175.615 210.173 174.655 209.64C173.695 209.107 172.615 208.84 171.415 208.84C170.189 208.84 169.095 209.107 168.135 209.64C167.202 210.173 166.455 210.947 165.895 211.96C165.335 212.947 165.055 214.133 165.055 215.52C165.055 216.88 165.335 218.067 165.895 219.08C166.455 220.093 167.202 220.867 168.135 221.4C169.095 221.933 170.175 222.2 171.375 222.2Z" fill="#F9F4FF"/>
</g>
<defs>
<clipPath id="clip0_89_4247">
<rect width="184.8" height="236" fill="white"/>
</clipPath>
</defs>
</svg>
